/* XPM */
static const char * next_xpm[] = {
"64 49 191 2",
"  	c None",
". 	c #18183E",
"+ 	c #17173F",
"@ 	c #171740",
"# 	c #161640",
"$ 	c #18183F",
"% 	c #99394F",
"& 	c #A63C52",
"* 	c #321E42",
"= 	c #16163F",
"- 	c #3C4362",
"; 	c #91A9B6",
"> 	c #505B76",
", 	c #181840",
"' 	c #D04756",
") 	c #EC4E5A",
"! 	c #E54C59",
"~ 	c #82334D",
"{ 	c #1B1840",
"] 	c #5C6A84",
"^ 	c #BDDDE3",
"/ 	c #B2D0D6",
"( 	c #8BA2AF",
"_ 	c #2F3356",
": 	c #C54455",
"< 	c #462345",
"[ 	c #C4E5EC",
"} 	c #C3E2EA",
"| 	c #B7D7DD",
"1 	c #ADCAD1",
"2 	c #69798E",
"3 	c #1B1C43",
"4 	c #EA4D59",
"5 	c #97384F",
"6 	c #231A41",
"7 	c #BEDFE6",
"8 	c #B3D1D7",
"9 	c #99B3BE",
"0 	c #3F4766",
"a 	c #D74857",
"b 	c #652B49",
"c 	c #C3E4EB",
"d 	c #BAD9E0",
"e 	c #B0CDD4",
"f 	c #778A9D",
"g 	c #23254B",
"h 	c #AD3E52",
"i 	c #311D42",
"j 	c #17173E",
"k 	c #C1E1E7",
"l 	c #B4D3D9",
"m 	c #A2BDC7",
"n 	c #4F5A75",
"o 	c #E44C58",
"p 	c #7A304C",
"q 	c #1A183F",
"r 	c #C3E5EC",
"s 	c #BCDBE3",
"t 	c #B1D0D5",
"u 	c #8AA0AF",
"v 	c #2E3355",
"w 	c #C44355",
"x 	c #442345",
"y 	c #C2E3EA",
"z 	c #ABC8CF",
"A 	c #64738A",
"B 	c #1A1B43",
"C 	c #221A41",
"D 	c #BEDEE5",
"E 	c #B2D1D7",
"F 	c #95AEBA",
"G 	c #394060",
"H 	c #D64857",
"I 	c #5D2947",
"J 	c #B9D9DF",
"K 	c #AFCED4",
"L 	c #21244A",
"M 	c #A63C51",
"N 	c #2D1D42",
"O 	c #C0E1E8",
"P 	c #A1BCC5",
"Q 	c #4A5471",
"R 	c #DF4A59",
"S 	c #6F2D4A",
"T 	c #191840",
"U 	c #4C5674",
"V 	c #C4E4EB",
"W 	c #BCDBE1",
"X 	c #B1CFD5",
"Y 	c #8398A9",
"Z 	c #292D51",
"` 	c #C34454",
" .	c #412244",
"..	c #393F60",
"+.	c #A1BBC9",
"@.	c #C2E3E9",
"#.	c #B6D6DC",
"$.	c #AAC7CE",
"%.	c #E74C59",
"&.	c #87344D",
"*.	c #1E1940",
"=.	c #1A1A42",
"-.	c #66758E",
";.	c #BDDDE5",
">.	c #92AAB7",
",.	c #373D5E",
"'.	c #542746",
").	c #2A2D51",
"!.	c #8DA3B5",
"~.	c #C2E4EA",
"{.	c #B9D8DF",
"].	c #AFCDD3",
"^.	c #738598",
"/.	c #202148",
"(.	c #AC3D52",
"_.	c #2E1D42",
":.	c #4A5472",
"<.	c #B1CFD9",
"[.	c #C1E0E8",
"}.	c #DE4A58",
"|.	c #732F4B",
"1.	c #212349",
"2.	c #798BA0",
"3.	c #8297A7",
"4.	c #292C51",
"5.	c #B94154",
"6.	c #3B2043",
"7.	c #3F4667",
"8.	c #A6C1CE",
"9.	c #C2E2E8",
"0.	c #B5D5DB",
"a.	c #5E6C85",
"b.	c #191941",
"c.	c #89354D",
"d.	c #1D1840",
"e.	c #62708A",
"f.	c #BDDCE5",
"g.	c #B2D0D7",
"h.	c #93ABB8",
"i.	c #CF4657",
"j.	c #512646",
"k.	c #2E3356",
"l.	c #93ABBC",
"m.	c #C3E4EA",
"n.	c #AECBD2",
"o.	c #6D7E93",
"p.	c #1F2047",
"q.	c #EB4E5A",
"r.	c #9D3A4F",
"s.	c #281B41",
"t.	c #616F89",
"u.	c #BFDFE6",
"v.	c #B3D2D8",
"w.	c #9EB8C2",
"x.	c #444D6A",
"y.	c #DB4A58",
"z.	c #662B4A",
"A.	c #18173F",
"B.	c #91A8B9",
"C.	c #B5D3DA",
"D.	c #B0CED4",
"E.	c #7D91A2",
"F.	c #26294E",
"G.	c #562747",
"H.	c #6F8097",
"I.	c #8BA2B0",
"J.	c #672B49",
"K.	c #93AABB",
"L.	c #9D3950",
"M.	c #BEDEE4",
"N.	c #C1E1E9",
"O.	c #B6D5DB",
"P.	c #A53C51",
"Q.	c #291C42",
"R.	c #532746",
"S.	c #88344E",
"T.	c #66758D",
"U.	c #B3D0D7",
"V.	c #1A1B42",
"W.	c #4B5573",
"X.	c #C2E2EA",
"Y.	c #E84D5A",
"Z.	c #8F364E",
"`.	c #432245",
" +	c #B6D5DC",
".+	c #301D43",
"++	c #C0E1E7",
"@+	c #B2CFD6",
"#+	c #2F3457",
"$+	c #983850",
"%+	c #505B77",
"  . + + @                                         + + +                                                                         ",
"# + + + + +                                     + + + + + $                                                                     ",
"+ + % & * + + =                                 + - ; > , + +                                                                   ",
"+ + ' ) ! ~ { + + ,                           @ + ] ^ / ( _ + + =                                                               ",
"+ + ' ) ) ) : < + + +                         @ + ] [ } | 1 2 3 + + @                                                           ",
"+ + ' ) ) ) ) 4 5 6 + + +                     @ + ] [ [ [ 7 8 9 0 + + +                                                         ",
"+ + ' ) ) ) ) ) ) a b + + +                   @ + ] [ [ [ [ c d e f g + + $                                                     ",
"+ + ' ) ) ) ) ) ) ) ) h i + + j               @ + ] [ [ [ [ [ [ k l m n + + +                                                   ",
"+ + ' ) ) ) ) ) ) ) ) ) o p q + +             @ + ] [ [ [ [ [ [ [ r s t u v + + j                                               ",
"+ + ' ) ) ) ) ) ) ) ) ) ) ) w x + + +         @ + ] [ [ [ [ [ [ [ [ [ y | z A B + + ,                                           ",
"+ + ' ) ) ) ) ) ) ) ) ) ) ) ) 4 5 C + + +     @ + ] [ [ [ [ [ [ [ [ [ [ [ D E F G + + $                                         ",
"+ + ' ) ) ) ) ) ) ) ) ) ) ) ) ) ) H I + + +   @ + ] [ [ [ [ [ [ [ [ [ [ [ [ c J K f L + + $                                     ",
"+ + ' ) ) ) ) ) ) ) ) ) ) ) ) ) ) ) ) M N + + + + ] [ [ [ [ [ [ [ [ [ [ [ [ [ [ O l P Q + + +                                   ",
"+ + ' ) ) ) ) ) ) ) ) ) ) ) ) ) ) ) ) ) R S T + + U y [ [ [ [ [ [ [ [ [ [ [ [ [ [ V W X Y Z + + =                               ",
"+ + ' ) ) ) ) ) ) ) ) ) ) ) ) ) ) ) ) ) ) ) `  .+ + ..+.[ [ [ [ [ [ [ [ [ [ [ [ [ [ [ @.#.$.A B + + ,                           ",
"+ + ' ) ) ) ) ) ) ) ) ) ) ) ) ) ) ) ) ) ) ) ) %.&.*.+ =.-.;.[ [ [ [ [ [ [ [ [ [ [ [ [ [ [ D E >.,.+ + +                         ",
"+ + ' ) ) ) ) ) ) ) ) ) ) ) ) ) ) ) ) ) ) ) ) ) ) ' '.+ + ).!.[ [ [ [ [ [ [ [ [ [ [ [ [ [ [ ~.{.].^./.+ + +                     ",
"+ + ' ) ) ) ) ) ) ) ) ) ) ) ) ) ) ) ) ) ) ) ) ) ) ) ) (._.+ + :.<.[ [ [ [ [ [ [ [ [ [ [ [ [ [ [ [.l P n + + +                   ",
"+ + ' ) ) ) ) ) ) ) ) ) ) ) ) ) ) ) ) ) ) ) ) ) ) ) ) ) }.|.T + 1.2.y [ [ [ [ [ [ [ [ [ [ [ [ [ [ V W X 3.4.+ + j               ",
"+ + ' ) ) ) ) ) ) ) ) ) ) ) ) ) ) ) ) ) ) ) ) ) ) ) ) ) ) ) 5.6.+ + 7.8.[ [ [ [ [ [ [ [ [ [ [ [ [ [ [ 9.0.$.a.b.+ +             ",
"+ + ' ) ) ) ) ) ) ) ) ) ) ) ) ) ) ) ) ) ) ) ) ) ) ) ) ) ) ) ) %.c.d.+ =.e.f.[ [ [ [ [ [ [ [ [ [ [ [ [ [ [ D g.h.,.+ + +         ",
"+ + ' ) ) ) ) ) ) ) ) ) ) ) ) ) ) ) ) ) ) ) ) ) ) ) ) ) ) ) ) ) ) i.j.+ + k.l.[ [ [ [ [ [ [ [ [ [ [ [ [ [ [ m.{.n.o.p.+ + +     ",
"+ + ' ) ) ) ) ) ) ) ) ) ) ) ) ) ) ) ) ) ) ) ) ) ) ) ) ) ) ) ) ) ) ) q.r.s.+ + t.[ [ [ [ [ [ [ [ [ [ [ [ [ [ [ [ u.v.w.x.+ + +   ",
"+ + ' ) ) ) ) ) ) ) ) ) ) ) ) ) ) ) ) ) ) ) ) ) ) ) ) ) ) ) ) ) ) ) ) ) y.z.A.+ B.[ [ [ [ [ [ [ [ [ [ [ [ [ [ [ [ [ C.D.E.F.+ + ",
"+ + ' ) ) ) ) ) ) ) ) ) ) ) ) ) ) ) ) ) ) ) ) ) ) ) ) ) ) ) ) ) ) ) ) ) ) ) G.+ H.[ [ [ [ [ [ [ [ [ [ [ [ [ [ [ [ [ s D.D.I.+ + ",
"+ + ' ) ) ) ) ) ) ) ) ) ) ) ) ) ) ) ) ) ) ) ) ) ) ) ) ) ) ) ) ) ) ) ) ) y.J.A.+ K.[ [ [ [ [ [ [ [ [ [ [ [ [ [ [ [ [ C.D.E.F.+ + ",
"+ + ' ) ) ) ) ) ) ) ) ) ) ) ) ) ) ) ) ) ) ) ) ) ) ) ) ) ) ) ) ) ) ) q.L.s.+ + t.[ [ [ [ [ [ [ [ [ [ [ [ [ [ [ [ u.v.w.x.+ + +   ",
"+ + ' ) ) ) ) ) ) ) ) ) ) ) ) ) ) ) ) ) ) ) ) ) ) ) ) ) ) ) ) ) ) i.j.+ + k.l.[ [ [ [ [ [ [ [ [ [ [ [ [ [ [ m.{.n.o.p.+ + +     ",
"+ + ' ) ) ) ) ) ) ) ) ) ) ) ) ) ) ) ) ) ) ) ) ) ) ) ) ) ) ) ) %.c.d.+ =.e.f.[ [ [ [ [ [ [ [ [ [ [ [ [ [ [ M./ >.,.+ + +         ",
"+ + ' ) ) ) ) ) ) ) ) ) ) ) ) ) ) ) ) ) ) ) ) ) ) ) ) ) ) ) 5.6.+ + 7.8.[ [ [ [ [ [ [ [ [ [ [ [ [ [ [ N.O.$.a.b.+ +             ",
"+ + ' ) ) ) ) ) ) ) ) ) ) ) ) ) ) ) ) ) ) ) ) ) ) ) ) ) }.|.T + 1.2.y [ [ [ [ [ [ [ [ [ [ [ [ [ [ V W X 3.4.+ + +               ",
"+ + ' ) ) ) ) ) ) ) ) ) ) ) ) ) ) ) ) ) ) ) ) ) ) ) ) P.Q.+ + :.<.[ [ [ [ [ [ [ [ [ [ [ [ [ [ [ [.l P Q + + +                   ",
"+ + ' ) ) ) ) ) ) ) ) ) ) ) ) ) ) ) ) ) ) ) ) ) ) ' R.+ + ).!.[ [ [ [ [ [ [ [ [ [ [ [ [ [ [ ~.{.].^./.+ + +                     ",
"+ + ' ) ) ) ) ) ) ) ) ) ) ) ) ) ) ) ) ) ) ) ) %.S.*.+ =.T.f.[ [ [ [ [ [ [ [ [ [ [ [ [ [ [ D U.>.,.+ + +                         ",
"+ + ' ) ) ) ) ) ) ) ) ) ) ) ) ) ) ) ) ) ) ) `  .+ + ..+.[ [ [ [ [ [ [ [ [ [ [ [ [ [ [ @.#.$.A V.+ + ,                           ",
"+ + ' ) ) ) ) ) ) ) ) ) ) ) ) ) ) ) ) ) R S T + + W.X.[ [ [ [ [ [ [ [ [ [ [ [ [ [ V W X Y Z + + =                               ",
"+ + ' ) ) ) ) ) ) ) ) ) ) ) ) ) ) ) ) M N + + + + ] [ [ [ [ [ [ [ [ [ [ [ [ [ [ O l P Q + + +                                   ",
"+ + ' ) ) ) ) ) ) ) ) ) ) ) ) ) ) H I + + +   @ + ] [ [ [ [ [ [ [ [ [ [ [ [ c J K f L + + $                                     ",
"+ + ' ) ) ) ) ) ) ) ) ) ) ) ) Y.Z.C + + +     @ + ] [ [ [ [ [ [ [ [ [ [ [ D E F G + + $                                         ",
"+ + ' ) ) ) ) ) ) ) ) ) ) ) w `.+ + +         @ + ] [ [ [ [ [ [ [ [ [ y  +z A B + + ,                                           ",
"+ + ' ) ) ) ) ) ) ) ) ) o p q + +             @ + ] [ [ [ [ [ [ [ r s t u v + + j                                               ",
"+ + ' ) ) ) ) ) ) ) ) h .++ + +               @ + ] [ [ [ [ [ [ ++l m n + + +                                                   ",
"+ + ' ) ) ) ) ) ) a b + + +                   @ + ] [ [ [ [ c d e f g + + $                                                     ",
"+ + ' ) ) ) ) 4 5 6 + + +                     @ + ] [ [ [ 7 8 9 0 + + +                                                         ",
"+ + ' ) ) ) : < + + +                         @ + ] [ } | 1 2 3 + + @                                                           ",
"+ + ' ) ! ~ { + + ,                           @ + ] ^ @+( #++ + =                                                               ",
"+ + $+M * + + =                                 + - ; %+, + +                                                                   ",
"# + + + + +                                     + + + + + $                                                                     ",
"  $ + + j                                         + + j                                                                         "};
