/* XPM */
static const char * pause_xpm[] = {
"64 64 70 1",
" 	c None",
".	c #5A1814",
"+	c #491310",
"@	c #3D110D",
"#	c #40110E",
"$	c #4B1512",
"%	c #641B17",
"&	c #631B17",
"*	c #5B1914",
"=	c #4A1510",
"-	c #060201",
";	c #000000",
">	c #190705",
",	c #601B15",
"'	c #601A15",
")	c #170605",
"!	c #4B1510",
"~	c #2C0C09",
"{	c #521712",
"]	c #511711",
"^	c #2C0D09",
"/	c #3B100D",
"(	c #611B16",
"_	c #1C0806",
":	c #7A221B",
"<	c #A02C23",
"[	c #A32D24",
"}	c #982A22",
"|	c #631B16",
"1	c #050101",
"2	c #641B16",
"3	c #1B0706",
"4	c #2C0C0A",
"5	c #E63F33",
"6	c #F44336",
"7	c #BB3329",
"8	c #651B15",
"9	c #651B17",
"0	c #BC332A",
"a	c #E53F33",
"b	c #2B0C0A",
"c	c #42120E",
"d	c #190706",
"e	c #B43128",
"f	c #621B16",
"g	c #4C1510",
"h	c #B23127",
"i	c #1A0706",
"j	c #E94034",
"k	c #E94033",
"l	c #611B15",
"m	c #41120E",
"n	c #B93329",
"o	c #040101",
"p	c #651C16",
"q	c #E43F32",
"r	c #2A0C09",
"s	c #41110F",
"t	c #7A211B",
"u	c #010000",
"v	c #611C16",
"w	c #3E110E",
"x	c #2D0D0B",
"y	c #531712",
"z	c #521713",
"A	c #070201",
"B	c #621C16",
"C	c #4D1610",
"D	c #5C1914",
"E	c #491510",
"                                                                ",
"                                                                ",
"                                                                ",
"           .+@@@@@@@@#$%                &$#@@@@@@@@+*           ",
"         =-;;;;;;;;;;;;;>,            ');;;;;;;;;;;;;-!         ",
"        ~;;;;;;;;;;;;;;;;;{          ];;;;;;;;;;;;;;;;;^        ",
"       /;;;;;;;;;;;;;;;;;;;(        ';;;;;;;;;;;;;;;;;;;@       ",
"       ;;;;_:<[[[[[[[}|1;;;>        );;;12}[[[[[[[<:3;;;;       ",
"      #;;;456666666666671;;;8      9;;;1066666666666ab;;;c      ",
"      d;;;e6666666666666f;;;g      !;;;26666666666666h;;;i      ",
"      -;;;j6666666666666};;;#      #;;;}6666666666666k;;;-      ",
"      ;;;;66666666666666[;;;@      @;;;[66666666666666;;;;      ",
"      ;;;;66666666666666[;;;@      @;;;[66666666666666;;;;      ",
"      ;;;;66666666666666[;;;@      @;;;[66666666666666;;;;      ",
"      ;;;;66666666666666[;;;@      @;;;[66666666666666;;;;      ",
"      ;;;;66666666666666[;;;@      @;;;[66666666666666;;;;      ",
"      ;;;;66666666666666[;;;@      @;;;[66666666666666;;;;      ",
"      ;;;;66666666666666[;;;@      @;;;[66666666666666;;;;      ",
"      ;;;;66666666666666[;;;@      @;;;[66666666666666;;;;      ",
"      ;;;;66666666666666[;;;@      @;;;[66666666666666;;;;      ",
"      ;;;;66666666666666[;;;@      @;;;[66666666666666;;;;      ",
"      ;;;;66666666666666[;;;@      @;;;[66666666666666;;;;      ",
"      ;;;;66666666666666[;;;@      @;;;[66666666666666;;;;      ",
"      ;;;;66666666666666[;;;@      @;;;[66666666666666;;;;      ",
"      ;;;;66666666666666[;;;@      @;;;[66666666666666;;;;      ",
"      ;;;;66666666666666[;;;@      @;;;[66666666666666;;;;      ",
"      ;;;;66666666666666[;;;@      @;;;[66666666666666;;;;      ",
"      ;;;;66666666666666[;;;@      @;;;[66666666666666;;;;      ",
"      ;;;;66666666666666[;;;@      @;;;[66666666666666;;;;      ",
"      ;;;;66666666666666[;;;@      @;;;[66666666666666;;;;      ",
"      ;;;;66666666666666[;;;@      @;;;[66666666666666;;;;      ",
"      ;;;;66666666666666[;;;@      @;;;[66666666666666;;;;      ",
"      ;;;;66666666666666[;;;@      @;;;[66666666666666;;;;      ",
"      ;;;;66666666666666[;;;@      @;;;[66666666666666;;;;      ",
"      ;;;;66666666666666[;;;@      @;;;[66666666666666;;;;      ",
"      ;;;;66666666666666[;;;@      @;;;[66666666666666;;;;      ",
"      ;;;;66666666666666[;;;@      @;;;[66666666666666;;;;      ",
"      ;;;;66666666666666[;;;@      @;;;[66666666666666;;;;      ",
"      ;;;;66666666666666[;;;@      @;;;[66666666666666;;;;      ",
"      ;;;;66666666666666[;;;@      @;;;[66666666666666;;;;      ",
"      ;;;;66666666666666[;;;@      @;;;[66666666666666;;;;      ",
"      ;;;;66666666666666[;;;@      @;;;[66666666666666;;;;      ",
"      ;;;;66666666666666[;;;@      @;;;[66666666666666;;;;      ",
"      ;;;;66666666666666[;;;@      @;;;[66666666666666;;;;      ",
"      ;;;;66666666666666[;;;@      @;;;[66666666666666;;;;      ",
"      ;;;;66666666666666[;;;@      @;;;[66666666666666;;;;      ",
"      ;;;;66666666666666[;;;@      @;;;[66666666666666;;;;      ",
"      ;;;;66666666666666[;;;@      @;;;[66666666666666;;;;      ",
"      ;;;;66666666666666[;;;@      @;;;[66666666666666;;;;      ",
"      ;;;;66666666666666[;;;@      @;;;[66666666666666;;;;      ",
"      ;;;;66666666666666[;;;@      @;;;[66666666666666;;;;      ",
"      ;;;;66666666666666[;;;@      @;;;[66666666666666;;;;      ",
"      ;;;;66666666666666[;;;@      @;;;[66666666666666;;;;      ",
"      -;;;j6666666666666};;;#      #;;;}6666666666666k;;;-      ",
"      d;;;e6666666666666l;;;g      $;;;|6666666666666h;;;3      ",
"      m;;;ba66666666666no;;;p      %;;;1766666666666qr;;;s      ",
"       ;;;;it<[[[[[[[}lo;;;i        >;;;1f}[[[[[[[<ti;;;;       ",
"       @;;;;;;;;;;;;;;;;;;uv        ,;;;;;;;;;;;;;;;;;;;w       ",
"        x;;;;;;;;;;;;;;;;uy          z;;;;;;;;;;;;;;;;;x        ",
"         $A;;;;;;;;;;;;;dB            (>;;;;;;;;;;;;;AC         ",
"           DE@@@@@@@@#gp                8g#@@@@@@@@ED           ",
"                                                                ",
"                                                                ",
"                                                                "};
