/* XPM */
static const char * play_xpm[] = {
"64 64 81 1",
" 	c None",
".	c #000000",
"+	c #000101",
"@	c #123143",
"#	c #266C92",
"$	c #3086B6",
"%	c #2F83B2",
"&	c #236386",
"*	c #0D2431",
"=	c #08151D",
"-	c #338FC2",
";	c #43BCFF",
">	c #43BBFE",
",	c #2E80AE",
"'	c #081820",
")	c #07131A",
"!	c #3CA7E3",
"~	c #41B5F6",
"{	c #215B7C",
"]	c #020507",
"^	c #2F85B4",
"/	c #3AA1DB",
"(	c #133649",
"_	c #0B202B",
":	c #2F84B3",
"<	c #205878",
"[	c #40B5F5",
"}	c #205A7A",
"|	c #28729A",
"1	c #39A0D9",
"2	c #123446",
"3	c #2B7AA5",
"4	c #225E80",
"5	c #39A1DA",
"6	c #133548",
"7	c #08171F",
"8	c #133447",
"9	c #08161E",
"0	c #020406",
"a	c #40B4F4",
"b	c #399FD8",
"c	c #123345",
"d	c #123244",
"e	c #2D7DAA",
"f	c #061117",
"g	c #3FB1F0",
"h	c #1D526F",
"i	c #010304",
"j	c #3799D0",
"k	c #102C3C",
"l	c #287199",
"m	c #020608",
"n	c #3493C7",
"o	c #020709",
"p	c #29729B",
"q	c #42BAFC",
"r	c #091B24",
"s	c #1E5472",
"t	c #1E5573",
"u	c #42BBFD",
"v	c #091922",
"w	c #3593C8",
"x	c #03080B",
"y	c #03070A",
"z	c #29739C",
"A	c #0D2330",
"B	c #2E82B0",
"C	c #3AA2DC",
"D	c #13374A",
"E	c #3BA4DF",
"F	c #215D7E",
"G	c #071219",
"H	c #318ABB",
"I	c #2E81AF",
"J	c #091821",
"K	c #102D3D",
"L	c #25678C",
"M	c #2F82B1",
"N	c #2C7CA8",
"O	c #226082",
"P	c #0A1D27",
"         ......                                                 ",
"       .+@#$%&*..                                               ",
"      .=-;;;;;>,'.                                              ",
"     .)!;;;;;;;;~{].                                            ",
"     .^;;;;;;;;;;;/(..                                          ",
"    ._>;;;;;;;;;;;;;:'.                                         ",
"    .<;;;;;;;;;;;;;;;[}].                                       ",
"    .|;;;;;;;;;;;;;;;;;12..                                     ",
"    .3;;;;;;;;;;;;;;;;;;;:'.                                    ",
"    .3;;;;;;;;;;;;;;;;;;;;[4].                                  ",
"    .3;;;;;;;;;;;;;;;;;;;;;;56..                                ",
"    .3;;;;;;;;;;;;;;;;;;;;;;;;:7.                               ",
"    .3;;;;;;;;;;;;;;;;;;;;;;;;;[4].                             ",
"    .3;;;;;;;;;;;;;;;;;;;;;;;;;;;58..                           ",
"    .3;;;;;;;;;;;;;;;;;;;;;;;;;;;;;:9.                          ",
"    .3;;;;;;;;;;;;;;;;;;;;;;;;;;;;;;[40.                        ",
"    .3;;;;;;;;;;;;;;;;;;;;;;;;;;;;;;;;12..                      ",
"    .3;;;;;;;;;;;;;;;;;;;;;;;;;;;;;;;;;;:=.                     ",
"    .3;;;;;;;;;;;;;;;;;;;;;;;;;;;;;;;;;;;a40.                   ",
"    .3;;;;;;;;;;;;;;;;;;;;;;;;;;;;;;;;;;;;;bc..                 ",
"    .3;;;;;;;;;;;;;;;;;;;;;;;;;;;;;;;;;;;;;;;:=.                ",
"    .3;;;;;;;;;;;;;;;;;;;;;;;;;;;;;;;;;;;;;;;;a40.              ",
"    .3;;;;;;;;;;;;;;;;;;;;;;;;;;;;;;;;;;;;;;;;;;bd..            ",
"    .3;;;;;;;;;;;;;;;;;;;;;;;;;;;;;;;;;;;;;;;;;;;;ef.           ",
"    .3;;;;;;;;;;;;;;;;;;;;;;;;;;;;;;;;;;;;;;;;;;;;;ghi.         ",
"    .3;;;;;;;;;;;;;;;;;;;;;;;;;;;;;;;;;;;;;;;;;;;;;;;jk.        ",
"    .3;;;;;;;;;;;;;;;;;;;;;;;;;;;;;;;;;;;;;;;;;;;;;;;;>lm.      ",
"    .3;;;;;;;;;;;;;;;;;;;;;;;;;;;;;;;;;;;;;;;;;;;;;;;;;;no      ",
"    .3;;;;;;;;;;;;;;;;;;;;;;;;;;;;;;;;;;;;;;;;;;;;;;;;;;;p.     ",
"    .3;;;;;;;;;;;;;;;;;;;;;;;;;;;;;;;;;;;;;;;;;;;;;;;;;;;qr     ",
"    .3;;;;;;;;;;;;;;;;;;;;;;;;;;;;;;;;;;;;;;;;;;;;;;;;;;;;s.    ",
"    .3;;;;;;;;;;;;;;;;;;;;;;;;;;;;;;;;;;;;;;;;;;;;;;;;;;;;l.    ",
"    .3;;;;;;;;;;;;;;;;;;;;;;;;;;;;;;;;;;;;;;;;;;;;;;;;;;;;p.    ",
"    .3;;;;;;;;;;;;;;;;;;;;;;;;;;;;;;;;;;;;;;;;;;;;;;;;;;;;t.    ",
"    .3;;;;;;;;;;;;;;;;;;;;;;;;;;;;;;;;;;;;;;;;;;;;;;;;;;;uv     ",
"    .3;;;;;;;;;;;;;;;;;;;;;;;;;;;;;;;;;;;;;;;;;;;;;;;;;;;|.     ",
"    .3;;;;;;;;;;;;;;;;;;;;;;;;;;;;;;;;;;;;;;;;;;;;;;;;;;wx      ",
"    .3;;;;;;;;;;;;;;;;;;;;;;;;;;;;;;;;;;;;;;;;;;;;;;;;>|y.      ",
"    .3;;;;;;;;;;;;;;;;;;;;;;;;;;;;;;;;;;;;;;;;;;;;;;;jk.        ",
"    .3;;;;;;;;;;;;;;;;;;;;;;;;;;;;;;;;;;;;;;;;;;;;;ghi.         ",
"    .3;;;;;;;;;;;;;;;;;;;;;;;;;;;;;;;;;;;;;;;;;;;;ef.           ",
"    .3;;;;;;;;;;;;;;;;;;;;;;;;;;;;;;;;;;;;;;;;;;bd..            ",
"    .3;;;;;;;;;;;;;;;;;;;;;;;;;;;;;;;;;;;;;;;;a40.              ",
"    .3;;;;;;;;;;;;;;;;;;;;;;;;;;;;;;;;;;;;;;;:=.                ",
"    .3;;;;;;;;;;;;;;;;;;;;;;;;;;;;;;;;;;;;;bc..                 ",
"    .3;;;;;;;;;;;;;;;;;;;;;;;;;;;;;;;;;;;a40.                   ",
"    .3;;;;;;;;;;;;;;;;;;;;;;;;;;;;;;;;;;:9.                     ",
"    .3;;;;;;;;;;;;;;;;;;;;;;;;;;;;;;;;18..                      ",
"    .3;;;;;;;;;;;;;;;;;;;;;;;;;;;;;;[4].                        ",
"    .3;;;;;;;;;;;;;;;;;;;;;;;;;;;;;:9.                          ",
"    .3;;;;;;;;;;;;;;;;;;;;;;;;;;;56..                           ",
"    .3;;;;;;;;;;;;;;;;;;;;;;;;;[4].                             ",
"    .3;;;;;;;;;;;;;;;;;;;;;;;;:7.                               ",
"    .3;;;;;;;;;;;;;;;;;;;;;;/(..                                ",
"    .3;;;;;;;;;;;;;;;;;;;;~4].                                  ",
"    .3;;;;;;;;;;;;;;;;;;;:'.                                    ",
"    .z;;;;;;;;;;;;;;;;;56..                                     ",
"    .{;;;;;;;;;;;;;;;[{].                                       ",
"    .A;;;;;;;;;;;;;;B'.                                         ",
"     .:;;;;;;;;;;;CD..                                          ",
"     .fE;;;;;;;;~Fm.                                            ",
"      .GH;;;;;>IJ.                                              ",
"       ..KLMNOP..                                               ",
"         ......                                                 "};
