/* XPM */
static const char * trash_xpm[] = {
"64 64 190 2",
"  	c None",
". 	c #007A23",
"+ 	c #007A24",
"@ 	c #007923",
"# 	c #007A22",
"$ 	c #27B750",
"% 	c #2DBC55",
"& 	c #2DBB55",
"* 	c #1AB045",
"= 	c #28B851",
"- 	c #38C05E",
"; 	c #34BE5A",
"> 	c #25B64E",
", 	c #38BF5E",
"' 	c #30BA56",
") 	c #21B44A",
"! 	c #1DB247",
"~ 	c #37BF5D",
"{ 	c #1AB145",
"] 	c #37C05D",
"^ 	c #33BE5B",
"/ 	c #31BD58",
"( 	c #19B045",
"_ 	c #30BC58",
": 	c #2FBC57",
"< 	c #2CB954",
"[ 	c #29B751",
"} 	c #2DB953",
"| 	c #24B54D",
"1 	c #3CC261",
"2 	c #46C86A",
"3 	c #41C566",
"4 	c #46C86B",
"5 	c #3BC262",
"6 	c #20B34A",
"7 	c #79E497",
"8 	c #8AEDA6",
"9 	c #56D078",
"0 	c #42C566",
"a 	c #87ECA3",
"b 	c #56D079",
"c 	c #1DB147",
"d 	c #84E9A1",
"e 	c #67DB87",
"f 	c #4DCB70",
"g 	c #68DA88",
"h 	c #36C05D",
"i 	c #1BB045",
"j 	c #7DE69B",
"k 	c #6EDE8E",
"l 	c #6FDE8E",
"m 	c #7DE69A",
"n 	c #1AB144",
"o 	c #33BD5A",
"p 	c #77E295",
"q 	c #74E293",
"r 	c #75E294",
"s 	c #76E294",
"t 	c #1AB046",
"u 	c #30BC56",
"v 	c #70DF8F",
"w 	c #7CE59A",
"x 	c #2FBA56",
"y 	c #2BB954",
"z 	c #69DB8A",
"A 	c #82E99F",
"B 	c #83EAA0",
"C 	c #69DB89",
"D 	c #2EB955",
"E 	c #27B751",
"F 	c #62D883",
"G 	c #89ECA4",
"H 	c #39C05F",
"I 	c #62D783",
"J 	c #2BB953",
"K 	c #24B54E",
"L 	c #5CD47E",
"M 	c #3DC363",
"N 	c #3EC363",
"O 	c #5CD37D",
"P 	c #20B349",
"Q 	c #55D077",
"R 	c #44C668",
"S 	c #44C769",
"T 	c #55D078",
"U 	c #1CB247",
"V 	c #4FCC72",
"W 	c #4ACA6F",
"X 	c #4BCB6F",
"Y 	c #4ECC72",
"Z 	c #36BF5C",
"` 	c #37BF5C",
" .	c #48C86D",
"..	c #52CE74",
"+.	c #52CE75",
"@.	c #48C96C",
"#.	c #33BD5B",
"$.	c #1BAF45",
"%.	c #58D27A",
"&.	c #59D27B",
"*.	c #31BD57",
"=.	c #19AF45",
"-.	c #2EBB57",
";.	c #3AC160",
">.	c #5ED580",
",.	c #5FD580",
"'.	c #2AB953",
").	c #87EBA2",
"!.	c #65D986",
"~.	c #66D986",
"{.	c #86EBA3",
"].	c #2CBB54",
"^.	c #80E79D",
"/.	c #6CDD8B",
"(.	c #6CDC8C",
"_.	c #7FE79D",
":.	c #23B54D",
"<.	c #73E092",
"[.	c #74E092",
"}.	c #1FB34A",
"|.	c #72E091",
"1.	c #79E498",
"2.	c #7AE597",
"3.	c #71DF91",
"4.	c #1CB146",
"5.	c #80E89E",
"6.	c #6BDC8B",
"7.	c #35BE5D",
"8.	c #65D985",
"9.	c #64D885",
"0.	c #32BE5A",
"a.	c #1AB044",
"b.	c #32BD59",
"c.	c #5ED57F",
"d.	c #3BC161",
"e.	c #31BC58",
"f.	c #2EBB56",
"g.	c #57D17A",
"h.	c #42C667",
"i.	c #57D179",
"j.	c #2EBB55",
"k.	c #2AB852",
"l.	c #51CD74",
"m.	c #49C96D",
"n.	c #49C96C",
"o.	c #51CE74",
"p.	c #2CBA56",
"q.	c #26B750",
"r.	c #4ACA6E",
"s.	c #4FCD72",
"t.	c #50CD73",
"u.	c #4ACA6D",
"v.	c #23B44D",
"w.	c #43C668",
"x.	c #43C768",
"y.	c #1FB249",
"z.	c #3DC362",
"A.	c #5DD47E",
"B.	c #5DD47F",
"C.	c #3DC262",
"D.	c #1BB046",
"E.	c #88ECA4",
"F.	c #63D784",
"G.	c #36BE5C",
"H.	c #81E99F",
"I.	c #6ADB8A",
"J.	c #6ADC8A",
"K.	c #33BD59",
"L.	c #7BE498",
"M.	c #4CCB6F",
"N.	c #2DBA55",
"O.	c #2DBA56",
"P.	c #26B64F",
"Q.	c #22B44C",
"R.	c #1EB249",
"S.	c #37C05E",
"T.	c #1AB146",
"U.	c #38BF5D",
"V.	c #35BE5B",
"W.	c #31BC57",
"X.	c #1BB144",
"Y.	c #30BC57",
"Z.	c #23B44C",
"`.	c #34BE5B",
" +	c #2AB952",
".+	c #22B44B",
"++	c #26B64E",
"@+	c #26B74F",
"#+	c #1DB149",
"$+	c #19B044",
"                                                                                                                                ",
"                                              . . . . . . . . . . . . . . . . . .                                               ",
"                                            . . . . . . . . . . . . . . . . . . . .                                             ",
"                                            . .                                 . .                                             ",
"                                            . .                                 . .                                             ",
"                                            . .                                 . .                                             ",
"                                            . .                                 . .                                             ",
"          + @ @ @ @ @ @ @ @ @ @ @ @ @ @ @ + . . # @ @ @ @ @ @ @ @ @ @ @ @ @ @ # . . + @ @ @ @ @ @ @ @ @ @ @ @ @ @ @ +           ",
"          . . . . . . . . . . . . . . . . . . . . . . . . . . . . . . . . . . . . . . . . . . . . . . . . . . . . . .           ",
"          @ @ @ @ @ @ @ @ @ @ @ @ @ @ @ @ @ @ @ @ @ @ @ @ @ @ @ @ @ @ @ @ @ @ @ @ @ @ @ @ @ @ @ @ @ @ @ @ @ @ @ @ @ .           ",
"                                                                                                                                ",
"                                                                                                                                ",
"                                                                                                                                ",
"              $ % % % % % % % % % % % % % % % % % % % % % % % % % % % % % % % % % % % % % % % % % % % % % % % % % % % % &       ",
"    * * * * * = - - - - - - - - - - - - - - - - - - - - - - - - - - - - - - - - - - - - - - - - - - - - - - - - - - - - - ;     ",
"    * * * * * > - - - - - - - - - - - - - - - - - - - - - - - - - - - - - - - - - - - - - - - - - - - - - - - - - - - - , '     ",
"            * ) - - - - - - - - - - - - - - - - - - - - - - - - - - - - - - - - - - - - - - - - - - - - - - - - - -             ",
"            * ! - - - - - - - - - - - - - - - - - - - - - - - - - - - - - - - - - - - - - - - - - - - - - - - - - ~             ",
"            * { ] - - - - - - - - - - - - - - - - - - - - - - - - - - - - - - - - - - - - - - - - - - - - - - - - ^             ",
"            * * ; - - - - - - - - - - - - - - - - - - - - - - - - - - - - - - - - - - - - - - - - - - - - - - - - /             ",
"            ( * _ - - - - - - - - - - - - - - - - - - - - - - - - - - - - - - - - - - - - - - - - - - - - - - - - :             ",
"              * < - - - - - - - - - - - - - - - - - - - - - - - - - - - - - - - - - - - - - - - - - - - - - - - - &             ",
"              * [ - - - - - - - - - - - - - - - - - - - - - - - - - - - - - - - - - - - - - - - - - - - - - - - - }             ",
"              * | - - - - - - - - - - 1 2 - - - - - - - - - - 3 3 - - - - - - - - - - 4 5 - - - - - - - - - - - -               ",
"              * 6 - - - - - - - - - - 7 8 9 - - - - - - - - 0 a a 0 - - - - - - - - b 8 7 - - - - - - - - - - - -               ",
"              * c - - - - - - - - - - d 8 e - - - - - - - - f 8 8 f - - - - - - - - g 8 d - - - - - - - - - - - h               ",
"              i * ] - - - - - - - - - j 8 k - - - - - - - - f 8 8 f - - - - - - - - l 8 m - - - - - - - - - - - ;               ",
"              n * o - - - - - - - - - p 8 q - - - - - - - - f 8 8 f - - - - - - - - r 8 s - - - - - - - - - - - _               ",
"              t * u - - - - - - - - - v 8 w - - - - - - - - f 8 8 f - - - - - - - - w 8 v - - - - - - - - - - - x               ",
"                * y - - - - - - - - - z 8 A - - - - - - - - f 8 8 f - - - - - - - - B 8 C - - - - - - - - - - - D               ",
"                * E - - - - - - - - - F 8 G H - - - - - - - f 8 8 f - - - - - - - H G 8 I - - - - - - - - - - - J               ",
"                * K - - - - - - - - - L 8 8 M - - - - - - - f 8 8 f - - - - - - - N 8 8 O - - - - - - - - - - -                 ",
"                * P - - - - - - - - - Q 8 8 R - - - - - - - f 8 8 f - - - - - - - S 8 8 T - - - - - - - - - - -                 ",
"                * U - - - - - - - - - V 8 8 W - - - - - - - f 8 8 f - - - - - - - X 8 8 Y - - - - - - - - - - Z                 ",
"                * * ` - - - - - - - -  .8 8 ..- - - - - - - f 8 8 f - - - - - - - +.8 8 @.- - - - - - - - - - #.                ",
"                $.* o - - - - - - - - 0 8 8 %.- - - - - - - f 8 8 f - - - - - - - &.8 8 3 - - - - - - - - - - *.                ",
"                =.* -.- - - - - - - - ;.8 8 >.- - - - - - - f 8 8 f - - - - - - - ,.8 8 ;.- - - - - - - - - - -.                ",
"                  * '.- - - - - - - - - ).8 !.- - - - - - - f 8 8 f - - - - - - - ~.8 {.- - - - - - - - - - - ].                ",
"                  * $ - - - - - - - - - ^.8 /.- - - - - - - f 8 8 f - - - - - - - (.8 _.- - - - - - - - - - - <                 ",
"                  * :.- - - - - - - - - 7 8 <.- - - - - - - f 8 8 f - - - - - - - [.8 7 - - - - - - - - - - -                   ",
"                  * }.- - - - - - - - - |.8 1.- - - - - - - f 8 8 f - - - - - - - 2.8 3.- - - - - - - - - - -                   ",
"                  * 4.- - - - - - - - - /.8 ^.- - - - - - - f 8 8 f - - - - - - - 5.8 6.- - - - - - - - - - 7.                  ",
"                  ( * Z - - - - - - - - 8.8 a - - - - - - - f 8 8 f - - - - - - - a 8 9.- - - - - - - - - - 0.                  ",
"                  a.* b.- - - - - - - - c.8 8 d.- - - - - - f 8 8 f - - - - - - 1 8 8 c.- - - - - - - - - - e.                  ",
"                  t * f.- - - - - - - - g.8 8 h.- - - - - - f 8 8 f - - - - - - h.8 8 i.- - - - - - - - - - j.                  ",
"                    * k.- - - - - - - - l.8 8 m.- - - - - - f 8 8 f - - - - - - n.8 8 o.- - - - - - - - - - p.                  ",
"                    * q.- - - - - - - - r.8 8 s.- - - - - - f 8 8 f - - - - - - t.8 8 u.- - - - - - - - - -                     ",
"                    * v.- - - - - - - - w.8 8 b - - - - - - f 8 8 f - - - - - - 9 8 8 x.- - - - - - - - - -                     ",
"                    * y.- - - - - - - - z.8 8 A.- - - - - - f 8 8 f - - - - - - B.8 8 C.- - - - - - - - - ,                     ",
"                    * D.- - - - - - - - - E.8 F.- - - - - - f 8 8 f - - - - - - 9.8 E.H - - - - - - - - - G.                    ",
"                    { * G.- - - - - - - - H.8 I.- - - - - - f 8 8 f - - - - - - J.8 A - - - - - - - - - - K.                    ",
"                    $.* e.- - - - - - - - L.8 v - - - - - - M.8 8 M.- - - - - - v 8 L.- - - - - - - - - - _                     ",
"                    { * N.- - - - - - - - c.{.i.- - - - - - z.m m z.- - - - - - g.{.c.- - - - - - - - - - O.                    ",
"                      * k.- - - - - - - - - - - - - - - - - - - - - - - - - - - - - - - - - - - - - - - - ].                    ",
"                      * P.- - - - - - - - - - - - - - - - - - - - - - - - - - - - - - - - - - - - - - - -                       ",
"                      * Q.- - - - - - - - - - - - - - - - - - - - - - - - - - - - - - - - - - - - - - - -                       ",
"                      * R.- - - - - - - - - - - - - - - - - - - - - - - - - - - - - - - - - - - - - - - S.                      ",
"                      * T.U.- - - - - - - - - - - - - - - - - - - - - - - - - - - - - - - - - - - - - - V.                      ",
"                      a.* W.- - - - - - - - - - - - - - - - - - - - - - - - - - - - - - - - - - - - - - b.                      ",
"                      X.* 6 ] - - - - - - - - - - - - - - - - - - - - - - - - - - - - - - - - - - - - - Y.                      ",
"                        * * Z.`.- - - - - - - - - - - - - - - - - - - - - - - - - - - - - - - - - - - ]  +                      ",
"                        D.* * D..+++@+@+@+@+@+@+@+@+@+@+@+@+@+@+@+@+@+@+@+@+@+@+@+@+@+@+@+@+@+@+@+P.v.#+                        ",
"                          $.* * * * * * * * * * * * * * * * * * * * * * * * * * * * * * * * * * * * $+                          ",
"                                                                                                                                "};
